<svg xmlns="http://www.w3.org/2000/svg" viewBox="0 0 280.6 213.28"><defs><style>.cls-1{fill:#00577c;}.cls-2{fill:#6dc62a;}</style></defs><title>la-empresa_1</title><g id="Capa_2" data-name="Capa 2"><g id="Pagina_Movil" data-name="Pagina Movil"><circle class="cls-1" cx="52.98" cy="206.51" r="3.13"/><circle class="cls-1" cx="253.01" cy="200.91" r="1.58"/><polygon class="cls-1" points="108.55 184 108.55 187.2 131.35 187.2 131.35 162.44 108.55 162.44 108.55 165.63 128.16 165.63 128.16 184 108.55 184"/><path class="cls-1" d="M108.55,191.27v2.62c0,.19,0,.38,0,.57H222.86v-3.19Z"/><path class="cls-1" d="M222.83,184H191.42V165.63h31.44v-3.19H188.23V187.2h34.63V184Z"/><path class="cls-1" d="M271.3,116.6V29.4A29.46,29.46,0,0,0,241.9,0H77.11a29.45,29.45,0,0,0-29.4,29.4V65.57H50.9V29.4A26.27,26.27,0,0,1,77.11,3.19H241.9A26.27,26.27,0,0,1,268.11,29.4v86.83h.63A9,9,0,0,1,271.3,116.6Z"/><path class="cls-1" d="M266,29.41A24.17,24.17,0,0,0,241.9,5.27H77.11A24.18,24.18,0,0,0,53,29.4V65.57h3.19V29.41A21,21,0,0,1,77.11,8.46H241.9a21,21,0,0,1,20.94,21v86.82H266Z"/><rect class="cls-1" x="108.55" y="157.17" width="114.32" height="3.19"/><rect class="cls-1" x="108.55" y="137.56" width="114.32" height="3.19"/><path class="cls-1" d="M271.29,118.78H234.72a8.88,8.88,0,0,0-2.19.28,9.06,9.06,0,0,0-3.07,1.37,9.35,9.35,0,0,0-3.83,5.71,9,9,0,0,0-.21,2v69.65a9.31,9.31,0,0,0,9.31,9.3h36.56a9.32,9.32,0,0,0,9.31-9.3V128.09A9.33,9.33,0,0,0,271.29,118.78Zm6.12,78.95a6.13,6.13,0,0,1-6.12,6.12H234.73a6.12,6.12,0,0,1-6.12-6.11V128.09a6,6,0,0,1,.32-2,6.17,6.17,0,0,1,5.8-4.17h36.56a6.14,6.14,0,0,1,6.12,6.12v69.64Z"/><path class="cls-1" d="M241.84,20.8H76.44a8.64,8.64,0,0,0-8.61,8.61V65.57H71V46H247.26v70.26h3.19V29.4A8.63,8.63,0,0,0,241.84,20.8Z"/><path class="cls-2" d="M73.48,34.92,80,41.47l6.55-6.55L80,28.37ZM80,37.87l-3-2.95L80,32,83,34.92Z"/><path class="cls-2" d="M235.66,36.56H224.54a1.34,1.34,0,0,0,0,2.68h11.12a1.34,1.34,0,1,0,0-2.68Z"/><path class="cls-2" d="M212.6,36.56H201.49a1.34,1.34,0,0,0,0,2.68H212.6a1.34,1.34,0,1,0,0-2.68Z"/><path class="cls-2" d="M178.43,39.24h11.12a1.34,1.34,0,1,0,0-2.68H178.43a1.34,1.34,0,0,0,0,2.68Z"/><path class="cls-2" d="M155.37,39.24h11.12a1.34,1.34,0,1,0,0-2.68H155.37a1.34,1.34,0,0,0,0,2.68Z"/><rect class="cls-2" x="75.34" y="56.37" width="40.21" height="6.57"/><path class="cls-1" d="M203.06,96.8h-75.8a1.34,1.34,0,1,0,0,2.67h75.81a1.34,1.34,0,0,0,0-2.67Z"/><path class="cls-1" d="M203.06,112.38h-75.8a1.34,1.34,0,1,0,0,2.67h75.81a1.34,1.34,0,0,0,0-2.67Z"/><path class="cls-1" d="M203.06,120.16h-75.8a1.34,1.34,0,1,0,0,2.68h75.81a1.34,1.34,0,0,0,0-2.68Z"/><path class="cls-1" d="M169.37,130.63a1.34,1.34,0,1,0,0-2.68H127.26a1.34,1.34,0,1,0,0,2.68Z"/><path class="cls-1" d="M203.06,104.59h-75.8a1.34,1.34,0,1,0,0,2.67h75.81a1.34,1.34,0,0,0,0-2.67Z"/><path class="cls-1" d="M203.06,56.79h-75.8a1.34,1.34,0,1,0,0,2.67h75.81a1.34,1.34,0,1,0,0-2.67Z"/><path class="cls-1" d="M203.06,72.37h-75.8a1.34,1.34,0,1,0,0,2.67h75.81a1.34,1.34,0,0,0,0-2.67Z"/><path class="cls-1" d="M203.06,80.15h-75.8a1.34,1.34,0,1,0,0,2.68h75.81a1.34,1.34,0,0,0,0-2.68Z"/><path class="cls-1" d="M169.37,90.62a1.34,1.34,0,1,0,0-2.68H127.26a1.34,1.34,0,0,0,0,2.68Z"/><path class="cls-1" d="M203.06,64.58h-75.8a1.34,1.34,0,1,0,0,2.67h75.81a1.34,1.34,0,0,0,0-2.67Z"/><path class="cls-2" d="M115.55,65.48H88.74v.08h.37c4.1,0,11.07,3.2,13.35,6.49h13.09Z"/><path class="cls-2" d="M115.55,80.82V74.24H104.64A16.85,16.85,0,0,1,108,80.82Z"/><path class="cls-2" d="M108.5,89.92h7V83.35h-7.12c0,.53.07,1.06.08,1.61v5Z"/><rect class="cls-2" x="108.5" y="92.76" width="7.04" height="6.57"/><rect class="cls-2" x="108.5" y="101.86" width="7.04" height="6.57"/><rect class="cls-2" x="108.5" y="110.63" width="7.04" height="6.57"/><rect class="cls-2" x="108.5" y="119.74" width="7.04" height="6.57"/><path class="cls-1" d="M105.87,83.35a16.11,16.11,0,0,0-.44-2.53,16.89,16.89,0,0,0-16.32-12.7H16.84A16.87,16.87,0,0,0,0,85V196.44a16.87,16.87,0,0,0,16.84,16.84H89.11A16.87,16.87,0,0,0,106,196.44V85C106,84.41,105.92,83.88,105.87,83.35Zm-3.11,8.57V196.44a13.67,13.67,0,0,1-13.65,13.65H16.84A13.67,13.67,0,0,1,3.19,196.44V85A13.67,13.67,0,0,1,16.84,71.31H89.11a13.71,13.71,0,0,1,13,9.51,14.05,14.05,0,0,1,.55,2.53,14.2,14.2,0,0,1,.1,1.61v7Z"/><path class="cls-1" d="M241.66,56.39H213.94v12h27.72Zm-3.19,8.85H217.13V59.58h21.34Z"/><path class="cls-2" d="M221.35,63.8h10.37a1.34,1.34,0,1,0,0-2.67H221.35a1.34,1.34,0,1,0,0,2.67Z"/><path class="cls-1" d="M241.66,74.13H213.94v12h27.72ZM238.47,83H217.13V77.33h21.34Z"/><path class="cls-2" d="M221.35,81.55h10.37a1.34,1.34,0,1,0,0-2.68H221.35a1.34,1.34,0,0,0,0,2.68Z"/><path class="cls-1" d="M241.66,92.12H213.94v12h27.72ZM238.47,101H217.13V95.31h21.34Z"/><path class="cls-2" d="M221.35,99.53h10.37a1.34,1.34,0,0,0,0-2.68H221.35a1.34,1.34,0,0,0,0,2.68Z"/><path class="cls-1" d="M89.11,78.17H17.88a6.36,6.36,0,0,0-6.34,6.34V196.4a6.37,6.37,0,0,0,6.34,6.34H89.11a6.35,6.35,0,0,0,6.33-6.34V84.51A6.35,6.35,0,0,0,89.11,78.17Zm0,121.38H17.89a3.17,3.17,0,0,1-3.16-3.15v-93H92.25v93A3.16,3.16,0,0,1,89.1,199.55Z"/><path class="cls-2" d="M17.22,92.31l6.55,6.56,6.55-6.56-6.55-6.55Zm6.55,3-2.94-3,2.94-2.94,2.95,2.94Z"/><path class="cls-2" d="M89,97.14H81.82a.86.86,0,0,0,0,1.72H89a.86.86,0,0,0,0-1.72Z"/><path class="cls-2" d="M74.15,97.14H67a.86.86,0,0,0,0,1.72h7.15a.86.86,0,0,0,0-1.72Z"/><path class="cls-2" d="M52.18,98.86h7.15a.86.86,0,0,0,0-1.72H52.18a.86.86,0,0,0,0,1.72Z"/><path class="cls-2" d="M37.36,98.86h7.15a.86.86,0,0,0,0-1.72H37.36a.86.86,0,0,0,0,1.72Z"/><path class="cls-2" d="M17.9,110.57l.44.44a.54.54,0,0,0,.76,0l1-1.05L21.21,111a.54.54,0,0,0,.76,0l.44-.44a.53.53,0,0,0,0-.75l-1.06-1.06,1.06-1.06a.53.53,0,0,0,0-.75L22,106.5a.54.54,0,0,0-.76,0l-1.06,1.06-1-1.06a.54.54,0,0,0-.76,0l-.44.44a.54.54,0,0,0,0,.76L19,108.76l-1.06,1.06A.53.53,0,0,0,17.9,110.57Z"/><path class="cls-1" d="M86.25,158.08H20.66a1.34,1.34,0,1,0,0,2.67H86.25a1.34,1.34,0,1,0,0-2.67Z"/><path class="cls-1" d="M86.25,173.65H20.66a1.34,1.34,0,1,0,0,2.68H86.25a1.34,1.34,0,0,0,0-2.68Z"/><path class="cls-1" d="M86.25,181.44H20.66a1.34,1.34,0,1,0,0,2.68H86.25a1.34,1.34,0,1,0,0-2.68Z"/><path class="cls-1" d="M62.77,191.91a1.34,1.34,0,0,0,0-2.68H20.66a1.34,1.34,0,1,0,0,2.68Z"/><path class="cls-1" d="M86.25,165.87H20.66a1.34,1.34,0,1,0,0,2.67H86.25a1.34,1.34,0,1,0,0-2.67Z"/><path class="cls-1" d="M86.25,118.07H20.66a1.34,1.34,0,1,0,0,2.67H86.25a1.34,1.34,0,1,0,0-2.67Z"/><path class="cls-1" d="M86.25,133.64H20.66a1.34,1.34,0,1,0,0,2.68H86.25a1.34,1.34,0,1,0,0-2.68Z"/><path class="cls-1" d="M86.25,141.43H20.66a1.34,1.34,0,1,0,0,2.68H86.25a1.34,1.34,0,1,0,0-2.68Z"/><path class="cls-1" d="M62.77,151.9a1.34,1.34,0,0,0,0-2.68H20.66a1.34,1.34,0,1,0,0,2.68Z"/><path class="cls-1" d="M86.25,125.85H20.66a1.34,1.34,0,1,0,0,2.68H86.25a1.34,1.34,0,0,0,0-2.68Z"/><path class="cls-1" d="M53.44,105.08H36.5v7.36H53.44Zm-1.95,5.41h-13V107h13Z"/><path class="cls-2" d="M41,109.58h6.34a.82.82,0,0,0,0-1.64H41a.82.82,0,0,0,0,1.64Z"/><path class="cls-1" d="M71.94,105.08H55v7.36H71.94Zm-2,5.41H57V107H70Z"/><path class="cls-2" d="M59.53,109.58h6.34a.82.82,0,1,0,0-1.64H59.53a.82.82,0,0,0,0,1.64Z"/><path class="cls-1" d="M90.25,105.08H73.31v7.36H90.25Zm-2,5.41h-13V107h13Z"/><path class="cls-2" d="M77.84,109.58h6.33a.82.82,0,1,0,0-1.64H77.84a.82.82,0,1,0,0,1.64Z"/><path class="cls-1" d="M270,126.42H236.52a4,4,0,0,0-4,4v63.47a4,4,0,0,0,4,4H270a4,4,0,0,0,4-4V130.42A4,4,0,0,0,270,126.42Z"/><path class="cls-2" d="M237.15,134.69l.45.44a.53.53,0,0,0,.75,0l1.06-1.06,1.06,1.06a.53.53,0,0,0,.75,0l.45-.44a.55.55,0,0,0,0-.76l-1.06-1.06,1.06-1.05a.56.56,0,0,0,0-.76l-.45-.44a.53.53,0,0,0-.75,0l-1.06,1-1.06-1a.53.53,0,0,0-.75,0l-.45.44a.56.56,0,0,0,0,.76l1.06,1.05-1.06,1.06A.56.56,0,0,0,237.15,134.69Z"/><path class="cls-2" d="M258.57,140.51H247.45a1.34,1.34,0,1,0,0,2.68h11.12a1.34,1.34,0,0,0,0-2.68Z"/><path class="cls-2" d="M258.57,146.89H247.45a1.34,1.34,0,1,0,0,2.68h11.12a1.34,1.34,0,0,0,0-2.68Z"/><path class="cls-2" d="M247.45,156h11.12a1.34,1.34,0,0,0,0-2.67H247.45a1.34,1.34,0,1,0,0,2.67Z"/><path class="cls-2" d="M247.45,162.34h11.12a1.34,1.34,0,0,0,0-2.68H247.45a1.34,1.34,0,1,0,0,2.68Z"/></g></g></svg>