<svg xmlns="http://www.w3.org/2000/svg" viewBox="0 0 153.2 28.6"><defs><style>.cls-1{fill:#337ab7;}.cls-2{fill:#686868;}.cls-3{fill:#8fc7ea;}.cls-4{fill:#70b1e0;}.cls-5{fill:#9ccbe8;}</style></defs><title>logo</title><g id="Capa_2" data-name="Capa 2"><g id="Pagina_Movil" data-name="Pagina Movil"><path class="cls-1" d="M42,16,38.3,3.8h-.1c.1,2.5.2,4.1.2,5V16H35.5V.4H40l3.6,11.9h.1L47.6.4h4.5V16H49V7.4c0-.4.1-1.6.2-3.6h-.1L45.1,16Z"/><path class="cls-1" d="M64.4,16l-1.1-3.7H57.6L56.5,16H53L58.4.4h4.1L68,16ZM62.5,9.5Q61,4.6,60.7,3.8a4.4,4.4,0,0,1-.2-1c-.3.9-.9,3.1-2,6.7Z"/><path class="cls-1" d="M72.1,10v6H68.8V.4h4.6a7.8,7.8,0,0,1,4.7,1.2,4.1,4.1,0,0,1,1.5,3.5,4.1,4.1,0,0,1-.8,2.4,4.4,4.4,0,0,1-2.1,1.7C79,12.7,80.5,15,81.3,16H77.6l-3.7-6Zm0-2.7h1.1a3.7,3.7,0,0,0,2.3-.5,1.8,1.8,0,0,0,.7-1.6,1.7,1.7,0,0,0-.7-1.6,4.8,4.8,0,0,0-2.4-.5h-1Z"/><path class="cls-1" d="M94.6,16H90.9L86.8,9.4l-1.4,1V16H82.1V.4h3.3V7.6l1.3-1.9L90.9.4h3.7L89.2,7.3Z"/><path class="cls-1" d="M104.4,16H95.5V.4h8.9V3.1H98.8V6.6H104V9.3H98.8v4h5.6Z"/><path class="cls-1" d="M112.6,16h-3.3V3.2h-4.2V.4h11.7V3.2h-4.2Z"/><path class="cls-1" d="M118.1,16V.4h3.3V16Z"/><path class="cls-1" d="M138,16h-4.2L127.1,4.2H127c.1,2.1.2,3.6.2,4.5V16h-3V.4h4.2l6.7,11.7h.1c-.1-2-.1-3.5-.1-4.3V.4H138Z"/><path class="cls-1" d="M146.7,7.3h6.2v8a16.4,16.4,0,0,1-2.8.7l-2.7.2a6.7,6.7,0,0,1-5.4-2.1c-1.2-1.3-1.8-3.3-1.8-5.9a8,8,0,0,1,2.1-5.9,8.1,8.1,0,0,1,6-2.1,10.6,10.6,0,0,1,4.6,1l-1.1,2.6a7.2,7.2,0,0,0-3.5-.8,4.3,4.3,0,0,0-3.5,1.4,5.9,5.9,0,0,0-1.3,3.9,6.1,6.1,0,0,0,1.1,3.8,3.6,3.6,0,0,0,3,1.4,7.6,7.6,0,0,0,2.1-.3V10h-3Z"/><path class="cls-2" d="M41.7,22.9a3.4,3.4,0,0,1-1,2.5,3.7,3.7,0,0,1-2.7.9H36.1V19.6h2.1a3.7,3.7,0,0,1,2.5.8A3.4,3.4,0,0,1,41.7,22.9Zm-1.5,0c0-1.4-.7-2.2-1.9-2.2h-.8v4.4h.6C39.5,25.1,40.2,24.4,40.2,22.9Z"/><path class="cls-2" d="M43.1,19.8a.6.6,0,0,1,.7-.7.7.7,0,0,1,.8.7.8.8,0,0,1-.2.5c-.1.2-.3.2-.6.2S43.1,20.3,43.1,19.8Zm1.4,6.5H43.1V21.2h1.4Z"/><path class="cls-2" d="M49.8,24.8a1.4,1.4,0,0,1-.6,1.2,2.4,2.4,0,0,1-1.6.4h-1l-.7-.2V24.9a1.6,1.6,0,0,0,.9.3l.8.2c.6,0,.8-.2.8-.5s0-.2-.1-.2l-.3-.3-.7-.3-.9-.4-.4-.5a1.5,1.5,0,0,1-.1-.7,1.4,1.4,0,0,1,.5-1.1,3.3,3.3,0,0,1,1.5-.3,3.4,3.4,0,0,1,1.8.4l-.4,1-.7-.3h-.7q-.6,0-.6.3a.5.5,0,0,0,.2.4l.9.4.8.4c.2.2.4.3.5.5A1.5,1.5,0,0,1,49.8,24.8Z"/><path class="cls-2" d="M53.4,26.4a2.4,2.4,0,0,1-2.6-2.6,2.8,2.8,0,0,1,.6-2,2.4,2.4,0,0,1,1.8-.7,2.1,2.1,0,0,1,2.3,2.3v.7H52.2a1,1,0,0,0,.4.9,1.3,1.3,0,0,0,.9.4h.9l.8-.4V26c-.2.2-.5.2-.8.3Zm-.2-4.3-.7.2-.3.8h2a1.1,1.1,0,0,0-.3-.8Z"/><path class="cls-2" d="M61.6,26.3H60.2v-3a1.3,1.3,0,0,0-.2-.8.6.6,0,0,0-.6-.3,1,1,0,0,0-.9.4,3.5,3.5,0,0,0-.2,1.3v2.4H56.9V21.2h1l.2.6h.1l.6-.5a1.6,1.6,0,0,1,1-.2,1.7,1.7,0,0,1,1.3.4,1.7,1.7,0,0,1,.5,1.4Zm-3.1-6.2h-.3a.5.5,0,0,0-.2.4h-.7a1.5,1.5,0,0,1,.4-1,1,1,0,0,1,.9-.4h.7l.3.2H60a.2.2,0,0,0,.2-.2c.1,0,.2-.2.2-.3h.7a1.2,1.2,0,0,1-.4,1,.9.9,0,0,1-.8.4h-.4l-.4-.2h-.6Z"/><path class="cls-2" d="M67.9,23.7a3,3,0,0,1-.6,2,2.5,2.5,0,0,1-1.9.7,2.8,2.8,0,0,1-1.3-.3,2.2,2.2,0,0,1-.9-1,2.9,2.9,0,0,1-.3-1.4,2.7,2.7,0,0,1,.7-1.9,2.3,2.3,0,0,1,1.8-.7,3.2,3.2,0,0,1,1.4.3,2.4,2.4,0,0,1,.8.9A3.2,3.2,0,0,1,67.9,23.7Zm-3.5,0a3.7,3.7,0,0,0,.2,1.2,1.2,1.2,0,0,0,.8.4.9.9,0,0,0,.8-.4,2.1,2.1,0,0,0,.3-1.2,1.6,1.6,0,0,0-.3-1.1c-.1-.3-.4-.4-.8-.4a.9.9,0,0,0-.8.4A2.7,2.7,0,0,0,64.4,23.7Z"/><path class="cls-2" d="M71.2,21.2h1.5l1,2.9c.1.2.1.5.2.8h0a1.9,1.9,0,0,1,.2-.8l1-2.9h1.5L74.4,27a2.7,2.7,0,0,1-.9,1.2,2.5,2.5,0,0,1-1.3.4h-.7V27.4h.6a.7.7,0,0,0,.6-.2,1.3,1.3,0,0,0,.5-.7v-.2Z"/><path class="cls-2" d="M83.1,26.3,81.5,21h-.1c.1,1.1.1,1.8.1,2.2v3.1H80.3V19.6h1.9l1.6,5.1h0l1.7-5.1h1.9v6.7H86.1V22.6a13.6,13.6,0,0,1,.1-1.6h-.1l-1.7,5.3Z"/><path class="cls-2" d="M92.5,26.3l-.3-.7h0l-.7.6-1,.2a1.4,1.4,0,0,1-1.6-1.6,1.2,1.2,0,0,1,.6-1.2,3.1,3.1,0,0,1,1.7-.5h.9v-.2a.7.7,0,0,0-.8-.8,3.4,3.4,0,0,0-1.5.4l-.4-1a4.1,4.1,0,0,1,1.9-.4,2.4,2.4,0,0,1,1.6.4,1.7,1.7,0,0,1,.6,1.4v3.4Zm-.4-2.4h-.6a1.2,1.2,0,0,0-.9.3.6.6,0,0,0-.3.6c0,.4.3.6.7.6a1.1,1.1,0,0,0,.8-.3,1,1,0,0,0,.3-.8Z"/><path class="cls-2" d="M98,21.1h.5v1.3h-.5a1.5,1.5,0,0,0-1,.3,1.2,1.2,0,0,0-.4,1v2.6H95.1V21.2h1.1l.2.8h.1a1.3,1.3,0,0,1,.6-.7A1.5,1.5,0,0,1,98,21.1Z"/><path class="cls-2" d="M100.9,23.5l.7-.8,1.4-1.5h1.6l-2.1,2.2,2.2,2.9h-1.6l-1.5-2.1-.6.5v1.6H99.6V19.1H101v4.4Z"/><path class="cls-2" d="M108,26.4a2.6,2.6,0,0,1-2-.7,2.7,2.7,0,0,1-.7-1.9,2.4,2.4,0,0,1,.7-2,2.1,2.1,0,0,1,1.8-.7,2.1,2.1,0,0,1,2.3,2.3v.7h-3.4a1.9,1.9,0,0,0,.4.9,1.3,1.3,0,0,0,.9.4h.9l.9-.4V26l-.8.3Zm-.2-4.3-.7.2a1.1,1.1,0,0,0-.3.8h2c-.1-.3-.1-.6-.3-.8Z"/><path class="cls-2" d="M113.6,25.3l.9-.2v1.1l-1.3.2a1.7,1.7,0,0,1-1.3-.4,2.3,2.3,0,0,1-.3-1.3V22.2h-.7v-.6l.8-.5.4-1h.9v1.1h1.4v1H113v2.5c0,.2,0,.3.1.4Z"/><path class="cls-2" d="M115.6,19.8a.8.8,0,0,1,1.6,0,.8.8,0,0,1-.2.5c-.2.2-.3.2-.6.2S115.6,20.3,115.6,19.8Zm1.5,6.5h-1.4V21.2h1.4Z"/><path class="cls-2" d="M123.5,26.3h-1.4v-3c0-.4,0-.7-.2-.8a.6.6,0,0,0-.6-.3,1,1,0,0,0-.9.4,3.5,3.5,0,0,0-.2,1.3v2.4h-1.4V21.2h1l.2.6h.1a1.8,1.8,0,0,1,.7-.5c.2-.2.5-.2.9-.2a2.1,2.1,0,0,1,1.4.4,2.1,2.1,0,0,1,.4,1.4Z"/><path class="cls-2" d="M129.6,21.2v.7l-.8.2a1.1,1.1,0,0,1,.3.8,1.4,1.4,0,0,1-.6,1.2,2.1,2.1,0,0,1-1.6.5h-.5l-.2.3c0,.2.3.3.8.3h.8a2.2,2.2,0,0,1,1.3.4,1.3,1.3,0,0,1,.5,1.1,1.7,1.7,0,0,1-.8,1.4,4.1,4.1,0,0,1-2.1.5,3.9,3.9,0,0,1-1.7-.4,1.2,1.2,0,0,1-.5-1.1,1.4,1.4,0,0,1,.2-.7,1.9,1.9,0,0,1,.9-.5.5.5,0,0,1-.4-.3.6.6,0,0,1-.1-.4.7.7,0,0,1,.1-.5l.5-.4a1.2,1.2,0,0,1-.6-.6,1.2,1.2,0,0,1-.3-.9,1.6,1.6,0,0,1,.6-1.3,2.5,2.5,0,0,1,1.6-.4h2.6ZM125.7,27a.5.5,0,0,0,.3.5l.7.2a2.1,2.1,0,0,0,1.2-.3.5.5,0,0,0,.4-.5c0-.2,0-.3-.2-.4h-2.2C125.8,26.7,125.7,26.8,125.7,27Zm.5-4.2a.8.8,0,0,0,.2.7c.1.2.3.2.6.2s.4,0,.5-.2a.8.8,0,0,0,.2-.7c0-.6-.2-.9-.7-.9S126.2,22.2,126.2,22.8Z"/><path class="cls-2" d="M140,26.3h-1.6l-.9-3.5a4.5,4.5,0,0,1-.2-.8,3.2,3.2,0,0,1-.1-.8,4.5,4.5,0,0,0-.2.8,4.5,4.5,0,0,1-.2.8l-.9,3.5h-1.6l-1.7-6.7H134l.9,3.6q.2,1.1.3,1.8c0-.2.1-.4.1-.8a6.4,6.4,0,0,1,.2-.9l1-3.7h1.3l1,3.7c.1.2.1.5.2.8s.1.7.1.9a6.4,6.4,0,0,0,.2-.9,2.9,2.9,0,0,1,.2-.9l.8-3.6h1.4Z"/><path class="cls-2" d="M145,26.4a2.6,2.6,0,0,1-2-.7,2.7,2.7,0,0,1-.7-1.9,2.8,2.8,0,0,1,.7-2,2.1,2.1,0,0,1,1.8-.7,2.1,2.1,0,0,1,2.3,2.3v.7h-3.3a1.2,1.2,0,0,0,.3.9,1.3,1.3,0,0,0,.9.4h.9l.9-.4V26l-.8.3Zm-.2-4.3-.7.2a1.1,1.1,0,0,0-.3.8h2a1.1,1.1,0,0,0-.3-.8Z"/><path class="cls-2" d="M151.3,21.1a1.5,1.5,0,0,1,1.4.7,3.3,3.3,0,0,1,.5,1.9,3.7,3.7,0,0,1-.5,2,1.7,1.7,0,0,1-1.5.7,1.6,1.6,0,0,1-1.4-.7h-.1l-.2.6h-1.1V19.1h1.4v2.7h0A1.6,1.6,0,0,1,151.3,21.1Zm-.5,1.1a.8.8,0,0,0-.7.3,1.6,1.6,0,0,0-.3,1.1h0a1.7,1.7,0,0,0,.3,1.2.8.8,0,0,0,1.4,0,2.1,2.1,0,0,0,.3-1.2,1.6,1.6,0,0,0-.3-1.1A.7.7,0,0,0,150.8,22.2Z"/><polygon class="cls-3" points="20.4 7.5 14.5 24.5 29 7.5 20.4 7.5"/><polygon class="cls-4" points="6 0 0 7.5 8.6 7.5 6 0"/><polygon class="cls-4" points="20.4 7.5 29 7.5 23 0 20.4 7.5"/><polygon class="cls-4" points="20.4 7.5 14.5 0 8.6 7.5 20.4 7.5"/><polygon class="cls-5" points="14.5 0 6 0 8.6 7.5 14.5 0"/><polygon class="cls-5" points="23 0 14.5 0 20.4 7.5 23 0"/><polygon class="cls-1" points="8.6 7.5 14.5 24.5 20.4 7.5 8.6 7.5"/><polygon class="cls-4" points="0 7.5 14.5 24.5 8.6 7.5 0 7.5"/></g></g></svg>